<svg xmlns="http://www.w3.org/2000/svg" xml:space="preserve" fill-rule="evenodd" stroke-linejoin="round" stroke-miterlimit="2" clip-rule="evenodd" viewBox="0 0 40 40">
  <g transform="translate(-931.6857 -83.8136) scale(2.00003)">
    <clipPath id="a">
      <path d="M465.835 41.906h20v20h-20z"/>
    </clipPath>
    <g clip-path="url(#a)">
      <path fill="red" fill-opacity="0.25" d="M465.8354 60.6557v.5c.7215-.005 1.6005-.511 2.5105-1.033.832-.477 1.6935-.967 2.4894-.967.7955 0 1.6545.49 2.4835.967.912.5245 1.7925 1.033 2.5165 1.033.724 0 1.6044-.5085 2.5164-1.033.829-.477 1.6875-.967 2.4835-.967.796 0 1.6575.49 2.489.967.91.522 1.789 1.028 2.5109 1.033v-.5c-.654-.005-1.438-.494-2.262-.9665-.9114-.523-1.866-1.0335-2.738-1.0335-.8724 0-1.8239.5105-2.7329 1.0335-.826.4755-1.6114.9665-2.267.9665-.656 0-1.441-.491-2.2669-.9665-.909-.523-1.8605-1.0335-2.733-1.0335-.8724 0-1.8264.5105-2.738 1.0335-.8244.4725-1.6084.9615-2.2619.9665Zm0-2v.5c.7215-.005 1.6005-.511 2.5105-1.033.832-.477 1.6935-.967 2.4894-.967.7955 0 1.6545.49 2.4835.967.912.5245 1.7925 1.033 2.5165 1.033.724 0 1.6044-.5085 2.5164-1.033.829-.477 1.6875-.967 2.4835-.967.796 0 1.6575.49 2.489.967.91.522 1.789 1.028 2.5109 1.033v-.5c-.654-.005-1.438-.494-2.262-.9665-.9114-.523-1.866-1.0334-2.738-1.0334-.8724 0-1.8239.5105-2.7329 1.0334-.826.4755-1.6114.9665-2.267.9665-.656 0-1.441-.491-2.2669-.9665-.909-.523-1.8605-1.0334-2.733-1.0334-.8724 0-1.8264.5105-2.738 1.0334-.8244.4725-1.6084.9615-2.2619.9665Zm0-2v.5c.7215-.005 1.6005-.511 2.5105-1.033.832-.477 1.6935-.967 2.4894-.967.7955 0 1.6545.49 2.4835.967.912.5246 1.7925 1.033 2.5165 1.033.724 0 1.6044-.5084 2.5164-1.033.829-.477 1.6875-.967 2.4835-.967.796 0 1.6575.49 2.489.967.91.522 1.789 1.028 2.5109 1.033v-.5c-.654-.005-1.438-.494-2.262-.9664-.9114-.523-1.866-1.0335-2.738-1.0335-.8724 0-1.8239.5105-2.7329 1.0335-.826.4755-1.6114.9665-2.267.9665-.656 0-1.441-.491-2.2669-.9665-.909-.523-1.8605-1.0335-2.733-1.0335-.8724 0-1.8264.5105-2.738 1.0335-.8244.4725-1.6084.9615-2.2619.9665Zm0-2v.5c.7215-.005 1.6005-.511 2.5105-1.0329.832-.477 1.6935-.967 2.4894-.967.7955 0 1.6545.49 2.4835.967.912.5245 1.7925 1.033 2.5165 1.033.724 0 1.6044-.5085 2.5164-1.033.829-.477 1.6875-.967 2.4835-.967.796 0 1.6575.49 2.489.967.91.522 1.789 1.028 2.5109 1.033v-.5c-.654-.005-1.438-.494-2.262-.9665-.9114-.523-1.866-1.0335-2.738-1.0335-.8724 0-1.8239.5105-2.7329 1.0335-.826.4755-1.6114.9665-2.267.9665-.656 0-1.441-.491-2.2669-.9665-.909-.523-1.8605-1.0335-2.733-1.0335-.8724 0-1.8264.5105-2.738 1.0335-.8244.4725-1.6084.9615-2.2619.9665Zm0-1.9999v.5c.7215-.005 1.6005-.511 2.5105-1.033.832-.477 1.6935-.967 2.4894-.967.7955 0 1.6545.49 2.4835.967.912.5245 1.7925 1.033 2.5165 1.033.724 0 1.6044-.5085 2.5164-1.033.829-.477 1.6875-.967 2.4835-.967.796 0 1.6575.49 2.489.967.91.522 1.789 1.028 2.5109 1.033v-.5c-.654-.005-1.438-.494-2.262-.9665-.9114-.523-1.866-1.0334-2.738-1.0334-.8724 0-1.8239.5104-2.7329 1.0334-.826.4755-1.6114.9665-2.267.9665-.656 0-1.441-.491-2.2669-.9665-.909-.523-1.8605-1.0334-2.733-1.0334-.8724 0-1.8264.5104-2.738 1.0334-.8244.4725-1.6084.9615-2.2619.9665Zm0-2v.5c.7215-.005 1.6005-.511 2.5105-1.033.832-.477 1.6935-.967 2.4894-.967.7955 0 1.6545.49 2.4835.967.912.5246 1.7925 1.033 2.5165 1.033.724 0 1.6044-.5084 2.5164-1.033.829-.477 1.6875-.967 2.4835-.967.796 0 1.6575.49 2.489.967.91.522 1.789 1.028 2.5109 1.033v-.5c-.654-.005-1.438-.494-2.262-.9664-.9114-.523-1.866-1.0335-2.738-1.0335-.8724 0-1.8239.5105-2.7329 1.0335-.826.4755-1.6114.9665-2.267.9665-.656 0-1.441-.491-2.2669-.9665-.909-.523-1.8605-1.0335-2.733-1.0335-.8724 0-1.8264.5105-2.738 1.0335-.8244.4725-1.6084.9615-2.2619.9665Zm0-2v.5c.7215-.005 1.6005-.511 2.5105-1.0329.832-.477 1.6935-.967 2.4894-.967.7955 0 1.6545.49 2.4835.967.912.5245 1.7925 1.033 2.5165 1.033.724 0 1.6044-.5085 2.5164-1.033.829-.477 1.6875-.967 2.4835-.967.796 0 1.6575.49 2.489.967.91.522 1.789 1.028 2.5109 1.033v-.5c-.654-.005-1.438-.494-2.262-.9665-.9114-.523-1.866-1.0335-2.738-1.0335-.8724 0-1.8239.5105-2.7329 1.0335-.826.4755-1.6114.9665-2.267.9665-.656 0-1.441-.491-2.2669-.9665-.909-.523-1.8605-1.0335-2.733-1.0335-.8724 0-1.8264.5105-2.738 1.0335-.8244.4725-1.6084.9615-2.2619.9665Zm0-1.9999v.5c.7215-.005 1.6005-.511 2.5105-1.033.832-.477 1.6935-.967 2.4894-.967.7955 0 1.6545.49 2.4835.967.912.5245 1.7925 1.033 2.5165 1.033.724 0 1.6044-.5085 2.5164-1.033.829-.477 1.6875-.967 2.4835-.967.796 0 1.6575.49 2.489.967.91.522 1.789 1.028 2.5109 1.033v-.5c-.654-.005-1.438-.494-2.262-.9665-.9114-.523-1.866-1.0334-2.738-1.0334-.8724 0-1.8239.5104-2.7329 1.0334-.826.4755-1.6114.9665-2.267.9665-.656 0-1.441-.491-2.2669-.9665-.909-.523-1.8605-1.0334-2.733-1.0334-.8724 0-1.8264.5104-2.738 1.0334-.8244.4725-1.6084.9615-2.2619.9665Zm0-2v.5c.7215-.005 1.6005-.511 2.5105-1.033.832-.477 1.6935-.967 2.4894-.967.7955 0 1.6545.49 2.4835.967.912.5246 1.7925 1.033 2.5165 1.033.724 0 1.6044-.5084 2.5164-1.033.829-.477 1.6875-.967 2.4835-.967.796 0 1.6575.49 2.489.967.91.522 1.789 1.028 2.5109 1.033v-.5c-.654-.005-1.438-.494-2.262-.9664-.9114-.523-1.866-1.0335-2.738-1.0335-.8724 0-1.8239.5105-2.7329 1.0335-.826.4755-1.6114.9665-2.267.9665-.656 0-1.441-.491-2.2669-.9665-.909-.523-1.8605-1.0335-2.733-1.0335-.8724 0-1.8264.5105-2.738 1.0335-.8244.4725-1.6084.9615-2.2619.9665Z"/>
    </g>
  </g>
</svg>